<svg width="16" height="16" viewBox="0 0 16 16" fill="none" xmlns="http://www.w3.org/2000/svg">
<path d="M14.9469 12.4472C15.5209 12.471 16.0231 12.018 15.9992 11.4458C15.9514 10.1344 15.6883 8.8468 15.21 7.60693C14.6121 6.0571 13.6794 4.62648 12.5076 3.45814C11.3118 2.2898 9.90085 1.3599 8.34637 0.763814C7.10279 0.286942 5.81139 0.0246616 4.49606 0.00081796C3.9221 -0.0230257 3.46771 0.47769 3.49163 1.07378C3.51554 1.64603 4.01776 2.09906 4.61563 2.1229C5.64398 2.17059 6.64841 2.38518 7.60501 2.74283C8.89643 3.21971 10.0683 3.9827 11.0488 4.96029C12.0293 5.93788 12.7946 7.08237 13.2729 8.36993C13.6316 9.32367 13.8468 10.3251 13.9186 11.3504C13.9186 11.9226 14.373 12.4233 14.9469 12.4472Z" fill="white"/>
<path d="M11.0247 12.781C11.5987 12.8526 12.1248 12.4472 12.1248 11.875C12.1248 11.0166 11.9813 10.1582 11.6944 9.32371C11.2878 8.17922 10.6421 7.1301 9.78115 6.24789C8.92021 5.38952 7.86795 4.7219 6.72003 4.31655C5.90692 4.03043 5.02206 3.88737 4.16112 3.86353C3.58716 3.86353 3.1806 4.38809 3.25235 4.96033C3.32409 5.53258 3.85022 5.93792 4.42418 5.96176C4.97423 5.98561 5.52428 6.10483 6.05041 6.27173C6.91135 6.55785 7.67663 7.05857 8.32234 7.70235C8.96804 8.34613 9.44634 9.10912 9.73332 9.96749C9.90073 10.4921 10.0203 11.0405 10.0442 11.5889C10.0681 12.1849 10.4508 12.7095 11.0247 12.781Z" fill="white"/>
<path d="M4.06556 15.9999C6.3109 15.9999 8.13111 14.1851 8.13111 11.9465C8.13111 9.70784 6.3109 7.89307 4.06556 7.89307C1.82021 7.89307 0 9.70784 0 11.9465C0 14.1851 1.82021 15.9999 4.06556 15.9999Z" fill="white"/>
<path d="M4.0655 15.046C5.78253 15.046 7.17445 13.6582 7.17445 11.9463C7.17445 10.2344 5.78253 8.84668 4.0655 8.84668C2.34847 8.84668 0.956543 10.2344 0.956543 11.9463C0.956543 13.6582 2.34847 15.046 4.0655 15.046Z" fill="#E42415"/>
</svg>
