<svg width="38" height="38" viewBox="0 0 38 38" fill="none" xmlns="http://www.w3.org/2000/svg">
<path d="M34.5833 37.5L21.4583 24.375C20.4167 25.2083 19.2187 25.8681 17.8646 26.3542C16.5104 26.8403 15.0694 27.0833 13.5417 27.0833C9.75694 27.0833 6.55382 25.7726 3.93229 23.151C1.31076 20.5295 0 17.3264 0 13.5417C0 9.75694 1.31076 6.55382 3.93229 3.93229C6.55382 1.31076 9.75694 0 13.5417 0C17.3264 0 20.5295 1.31076 23.151 3.93229C25.7726 6.55382 27.0833 9.75694 27.0833 13.5417C27.0833 15.0694 26.8403 16.5104 26.3542 17.8646C25.8681 19.2187 25.2083 20.4167 24.375 21.4583L37.5 34.5833L34.5833 37.5ZM13.5417 22.9167C16.1458 22.9167 18.3594 22.0052 20.1823 20.1823C22.0052 18.3594 22.9167 16.1458 22.9167 13.5417C22.9167 10.9375 22.0052 8.72396 20.1823 6.90104C18.3594 5.07812 16.1458 4.16667 13.5417 4.16667C10.9375 4.16667 8.72396 5.07812 6.90104 6.90104C5.07812 8.72396 4.16667 10.9375 4.16667 13.5417C4.16667 16.1458 5.07812 18.3594 6.90104 20.1823C8.72396 22.0052 10.9375 22.9167 13.5417 22.9167Z" fill="#E67C26"/>
</svg>
