<svg width="50" height="50" viewBox="0 0 50 50" fill="none" xmlns="http://www.w3.org/2000/svg">
<mask id="mask0_17_2552" style="mask-type:alpha" maskUnits="userSpaceOnUse" x="0" y="0" width="50" height="50">
<rect width="50" height="50" fill="#D9D9D9"/>
</mask>
<g mask="url(#mask0_17_2552)">
<path d="M34.375 33.3333V16.6667L26.0417 25L34.375 33.3333ZM10.4167 43.75C9.27083 43.75 8.28993 43.342 7.47396 42.526C6.65799 41.7101 6.25 40.7292 6.25 39.5833V10.4167C6.25 9.27083 6.65799 8.28993 7.47396 7.47396C8.28993 6.65799 9.27083 6.25 10.4167 6.25H39.5833C40.7292 6.25 41.7101 6.65799 42.526 7.47396C43.342 8.28993 43.75 9.27083 43.75 10.4167V39.5833C43.75 40.7292 43.342 41.7101 42.526 42.526C41.7101 43.342 40.7292 43.75 39.5833 43.75H10.4167ZM16.6667 39.5833V10.4167H10.4167V39.5833H16.6667ZM20.8333 39.5833H39.5833V10.4167H20.8333V39.5833Z" fill="#E67C26"/>
</g>
</svg>
