<svg width="50" height="50" viewBox="0 0 50 50" fill="none" xmlns="http://www.w3.org/2000/svg">
<mask id="mask0_841_89006" style="mask-type:alpha" maskUnits="userSpaceOnUse" x="0" y="0" width="50" height="50">
<rect width="50" height="50" transform="matrix(-1 0 0 1 50 0)" fill="#D9D9D9"/>
</mask>
<g mask="url(#mask0_841_89006)">
<path d="M15.625 33.3333V16.6667L23.9583 25L15.625 33.3333ZM39.5833 43.75C40.7292 43.75 41.7101 43.342 42.526 42.526C43.342 41.7101 43.75 40.7292 43.75 39.5833V10.4167C43.75 9.27083 43.342 8.28993 42.526 7.47396C41.7101 6.65799 40.7292 6.25 39.5833 6.25H10.4167C9.27084 6.25 8.28993 6.65799 7.47396 7.47396C6.65799 8.28993 6.25 9.27083 6.25 10.4167V39.5833C6.25 40.7292 6.65799 41.7101 7.47396 42.526C8.28993 43.342 9.27084 43.75 10.4167 43.75H39.5833ZM33.3333 39.5833V10.4167H39.5833V39.5833H33.3333ZM29.1667 39.5833H10.4167V10.4167H29.1667V39.5833Z" fill="#E67C26"/>
</g>
</svg>
